<?xml version="1.0" encoding="UTF-8" standalone="no"?>
<!DOCTYPE svg PUBLIC "-//W3C//DTD SVG 20010904//EN"
              "http://www.w3.org/TR/2001/REC-SVG-20010904/DTD/svg10.dtd">

<svg xmlns="http://www.w3.org/2000/svg"
     width="6.94444in" height="6.94444in"
     viewBox="0 0 500 500">
  <path id="Selection #1"
        fill="none" stroke="black" stroke-width="1"
        d="M 200.00,0.00
           C 200.00,0.00 302.00,0.00 302.00,0.00
             302.00,0.00 302.00,199.00 302.00,199.00
             302.00,199.00 500.00,199.00 500.00,199.00
             500.00,199.00 500.00,299.00 500.00,299.00
             500.00,299.00 302.00,299.00 302.00,299.00
             302.00,299.00 302.00,500.00 302.00,500.00
             302.00,500.00 200.00,500.00 200.00,500.00
             200.00,500.00 200.00,299.00 200.00,299.00
             200.00,299.00 0.00,299.00 0.00,299.00
             0.00,299.00 0.00,199.00 0.00,199.00
             0.00,199.00 200.00,199.00 200.00,199.00
             200.00,199.00 200.00,0.00 200.00,0.00 Z" />
</svg>
